<svg xmlns="http://www.w3.org/2000/svg" xmlns:svg="http://www.w3.org/2000/svg" id="Layer_1" x="0" y="0" enable-background="new 0 0 71.8 73.8" version="1.1" viewBox="0 0 71.8 73.8" xml:space="preserve"><metadata id="metadata19"/><rect id="rect3" width="64.5" height="38.3" x="3.5" y="33" fill="none" stroke="#5C5C5C" stroke-miterlimit="10"/><rect id="rect5" width="68.5" height="14.1" x="1.5" y="18.9" fill="none" stroke="#5C5C5C" stroke-miterlimit="10"/><rect id="rect7" width="22" height="14" x="25" y="18.9" fill="none" stroke="#5C5C5C" stroke-miterlimit="10" stroke-width=".967"/><polygon id="polygon9" fill="none" stroke="#5C5C5C" stroke-miterlimit="10" points="45.9 71.3 26.1 71.3 26.1 38.9 45.9 32.9"/><path id="path11" fill="none" stroke="#5C5C5C" stroke-miterlimit="10" stroke-width="2" d="M36,15.2c0,4.6-3.7,3.2-8.2,3.2s-8.2-3.7-8.2-8.2 S23.2,2,27.8,2S36,10.7,36,15.2z"/><path id="path13" fill="none" stroke="#5C5C5C" stroke-miterlimit="10" stroke-width="2" d="M36.5,15.2c0,4.6,3.7,3.2,8.2,3.2s8.2-3.7,8.2-8.2 S49.3,2,44.8,2S36.5,10.7,36.5,15.2z"/></svg>