<svg xmlns="http://www.w3.org/2000/svg" xmlns:xlink="http://www.w3.org/1999/xlink" id="Layer_1" width="120" height="130" x="0" style="enable-background:new 246 331 120 130" y="0" version="1.1" viewBox="246 331 120 130" xml:space="preserve"><style type="text/css">.st0,.st1{fill:#f6f6f6;stroke:#f7a167;stroke-width:2;stroke-miterlimit:10}.st1{fill:none}.st2{fill:#f7a167}</style><path d="M356.8,429.1L309,456.6c-1.8,1-4,1-5.8,0l-47.8-27.5c-1.8-1-2.9-3-2.9-5.1v-55.1c0-2.1,1.1-4,2.9-5.1l47.7-27.5	c1.8-1,4-1,5.8,0l47.7,27.5c1.8,1,2.9,3,2.9,5.1V424C359.7,426.1,358.6,428,356.8,429.1z" class="st0"/><g><polyline points="290.4 378 271.8 396 287.1 410.3" class="st1"/><polyline points="322.4 378.7 340.4 396 321.1 414" class="st1"/><line x1="313.9" x2="295.5" y1="369.9" y2="418.9" class="st1"/></g><g><path d="M289.4,426.8h2.6c0.6,0,1,0,1.4,0.1s0.8,0.3,1.1,0.7s0.5,0.7,0.7,1.2s0.2,1,0.2,1.7c0,0.6-0.1,1.1-0.2,1.5 c-0.2,0.5-0.4,0.9-0.8,1.3c-0.3,0.2-0.6,0.4-1,0.6c-0.3,0.1-0.7,0.2-1.3,0.2h-2.7L289.4,426.8L289.4,426.8z M290.8,428v4.7h1.1 c0.4,0,0.7,0,0.9-0.1c0.2-0.1,0.4-0.2,0.6-0.3c0.2-0.1,0.3-0.4,0.4-0.7c0.1-0.3,0.1-0.8,0.1-1.3s0-1-0.1-1.3s-0.2-0.5-0.4-0.7 c-0.2-0.2-0.4-0.3-0.7-0.3c-0.2,0-0.6-0.1-1.2-0.1L290.8,428L290.8,428L290.8,428z" class="st2"/><path d="M296.6,434v-7.2h5.3v1.2H298v1.6h3.6v1.2H298v1.9h4v1.2L296.6,434L296.6,434z" class="st2"/><path d="M302.9,431.6l1.4-0.1c0.1,0.5,0.3,0.8,0.5,1c0.3,0.2,0.6,0.3,1,0.3c0.5,0,0.8-0.1,1.1-0.3 c0.2-0.2,0.4-0.4,0.4-0.7c0-0.2,0-0.3-0.1-0.4s-0.3-0.2-0.5-0.3c-0.2-0.1-0.6-0.2-1.2-0.3c-0.8-0.2-1.3-0.4-1.6-0.7 c-0.4-0.4-0.7-0.9-0.7-1.4c0-0.4,0.1-0.7,0.3-1s0.5-0.6,0.9-0.7c0.4-0.2,0.9-0.2,1.4-0.2c0.9,0,1.6,0.2,2,0.6 c0.5,0.4,0.7,0.9,0.7,1.6l-1.4,0.1c-0.1-0.4-0.2-0.6-0.4-0.8c-0.2-0.2-0.5-0.2-0.9-0.2s-0.7,0.1-1,0.3c-0.2,0.1-0.2,0.3-0.2,0.4 c0,0.2,0.1,0.3,0.2,0.4c0.2,0.2,0.6,0.3,1.3,0.5c0.7,0.2,1.2,0.3,1.6,0.5c0.3,0.2,0.6,0.4,0.8,0.7s0.3,0.7,0.3,1.1 s-0.1,0.8-0.3,1.2c-0.2,0.4-0.5,0.6-1,0.8c-0.4,0.2-0.9,0.3-1.6,0.3c-0.9,0-1.6-0.2-2.1-0.6C303.3,433.1,303,432.4,302.9,431.6z" class="st2"/><path d="M309.9,434v-7.2h1.4v7.2H309.9z" class="st2"/><path d="M316.1,431.3v-1.2h3.1v2.9c-0.3,0.3-0.7,0.6-1.3,0.8c-0.6,0.2-1.2,0.3-1.7,0.3c-0.7,0-1.4-0.2-2-0.5 s-1-0.8-1.3-1.3c-0.3-0.6-0.4-1.2-0.4-1.9c0-0.7,0.2-1.4,0.5-2s0.8-1,1.4-1.3c0.5-0.2,1-0.4,1.7-0.4c0.9,0,1.6,0.2,2.1,0.6 s0.8,0.9,1,1.5l-1.4,0.3c-0.1-0.4-0.3-0.6-0.6-0.8c-0.3-0.2-0.6-0.3-1-0.3c-0.6,0-1.1,0.2-1.5,0.6s-0.6,1-0.6,1.8s0.2,1.5,0.6,1.9 s0.9,0.6,1.5,0.6c0.3,0,0.6-0.1,0.9-0.2s0.6-0.3,0.8-0.4v-0.9h-1.8L316.1,431.3L316.1,431.3z" class="st2"/><path d="M320.5,434v-7.2h1.4l2.9,4.8v-4.8h1.3v7.2h-1.5l-2.9-4.7v4.7H320.5z" class="st2"/></g></svg>