<svg xmlns="http://www.w3.org/2000/svg" xmlns:svg="http://www.w3.org/2000/svg" id="Layer_1" x="0" y="0" enable-background="new 0 0 21.2 23.8" version="1.1" viewBox="0 0 21.2 23.8" xml:space="preserve"><metadata id="metadata15"/><g id="g3"><path id="path5" fill="#0278B5" d="M18.1,4.3H3.7C3,4.3,2.5,4.8,2.5,5.5v14.4c0,0.7,0.6,1.2,1.2,1.2h14.4c0.7,0,1.2-0.5,1.2-1.2V5.5 C19.3,4.8,18.8,4.3,18.1,4.3z"/><path id="path7" fill="#FFF" d="M5,10.6h2.5v8H5V10.6z M6.2,6.6C7,6.6,7.7,7.3,7.7,8c0,0.8-0.6,1.4-1.4,1.4C5.4,9.5,4.8,8.8,4.8,8 C4.8,7.3,5.4,6.6,6.2,6.6"/><path id="path9" fill="#FFF" d="M9,10.6h2.4v1.1h0c0.3-0.6,1.1-1.3,2.4-1.3c2.5,0,3,1.7,3,3.8v4.4h-2.5v-3.9c0-0.9,0-2.1-1.3-2.1 c-1.3,0-1.5,1-1.5,2.1v4H9V10.6z"/></g></svg>